<mxfile host="Electron" modified="2023-08-27T09:04:02.132Z" agent="Mozilla/5.0 (Windows NT 10.0; Win64; x64) AppleWebKit/537.36 (KHTML, like Gecko) draw.io/21.6.5 Chrome/114.0.5735.243 Electron/25.3.1 Safari/537.36" etag="UHCyGeEgJVIZ41sbesng" version="21.6.5" type="device">
  <diagram name="System Architeture" id="CG1MQ8QjqgiBt0pSg7FG">
    <mxGraphModel dx="2126" dy="1706" grid="1" gridSize="10" guides="1" tooltips="1" connect="1" arrows="1" fold="1" page="1" pageScale="1" pageWidth="850" pageHeight="1100" math="0" shadow="0">
      <root>
        <mxCell id="0" />
        <mxCell id="1" parent="0" />
        <mxCell id="GImvYdqMDnQKKrTByTcn-1" value="" style="rounded=0;whiteSpace=wrap;html=1;fontSize=18;" parent="1" vertex="1">
          <mxGeometry y="-160" width="1520" height="160" as="geometry" />
        </mxCell>
        <mxCell id="GImvYdqMDnQKKrTByTcn-2" value="" style="rounded=0;whiteSpace=wrap;html=1;fontSize=18;" parent="1" vertex="1">
          <mxGeometry y="40" width="1520" height="920" as="geometry" />
        </mxCell>
        <mxCell id="GImvYdqMDnQKKrTByTcn-5" style="edgeStyle=orthogonalEdgeStyle;rounded=0;orthogonalLoop=1;jettySize=auto;html=1;exitX=0.204;exitY=0;exitDx=0;exitDy=0;entryX=0.15;entryY=0.95;entryDx=0;entryDy=0;entryPerimeter=0;fontSize=18;exitPerimeter=0;" parent="1" source="GImvYdqMDnQKKrTByTcn-9" target="GImvYdqMDnQKKrTByTcn-52" edge="1">
          <mxGeometry relative="1" as="geometry">
            <Array as="points">
              <mxPoint x="162" y="80" />
            </Array>
          </mxGeometry>
        </mxCell>
        <mxCell id="GImvYdqMDnQKKrTByTcn-6" value="&lt;font style=&quot;font-size: 20px;&quot;&gt;Invoke&lt;/font&gt;" style="edgeLabel;html=1;align=center;verticalAlign=middle;resizable=0;points=[];fontSize=11;" parent="GImvYdqMDnQKKrTByTcn-5" vertex="1" connectable="0">
          <mxGeometry x="0.6439" y="1" relative="1" as="geometry">
            <mxPoint x="1" y="19" as="offset" />
          </mxGeometry>
        </mxCell>
        <mxCell id="GImvYdqMDnQKKrTByTcn-7" style="edgeStyle=orthogonalEdgeStyle;rounded=0;orthogonalLoop=1;jettySize=auto;html=1;exitX=0.699;exitY=-0.002;exitDx=0;exitDy=0;entryX=0.25;entryY=1;entryDx=0;entryDy=0;fontSize=20;exitPerimeter=0;" parent="1" source="GImvYdqMDnQKKrTByTcn-9" target="GImvYdqMDnQKKrTByTcn-56" edge="1">
          <mxGeometry relative="1" as="geometry">
            <Array as="points">
              <mxPoint x="459" y="80" />
              <mxPoint x="460" y="80" />
            </Array>
          </mxGeometry>
        </mxCell>
        <mxCell id="GImvYdqMDnQKKrTByTcn-8" value="Invoke" style="edgeLabel;html=1;align=center;verticalAlign=middle;resizable=0;points=[];fontSize=20;" parent="GImvYdqMDnQKKrTByTcn-7" vertex="1" connectable="0">
          <mxGeometry x="-0.1961" relative="1" as="geometry">
            <mxPoint y="-15" as="offset" />
          </mxGeometry>
        </mxCell>
        <mxCell id="GImvYdqMDnQKKrTByTcn-9" value="" style="rounded=0;whiteSpace=wrap;html=1;fontSize=18;" parent="1" vertex="1">
          <mxGeometry x="40" y="80" width="600" height="840" as="geometry" />
        </mxCell>
        <mxCell id="GImvYdqMDnQKKrTByTcn-12" style="edgeStyle=orthogonalEdgeStyle;rounded=0;orthogonalLoop=1;jettySize=auto;html=1;exitX=0.45;exitY=0;exitDx=0;exitDy=0;entryX=0.25;entryY=1;entryDx=0;entryDy=0;fontSize=20;exitPerimeter=0;" parent="1" source="GImvYdqMDnQKKrTByTcn-14" target="GImvYdqMDnQKKrTByTcn-59" edge="1">
          <mxGeometry relative="1" as="geometry">
            <Array as="points" />
          </mxGeometry>
        </mxCell>
        <mxCell id="GImvYdqMDnQKKrTByTcn-13" value="Invoke" style="edgeLabel;html=1;align=center;verticalAlign=middle;resizable=0;points=[];fontSize=20;" parent="GImvYdqMDnQKKrTByTcn-12" vertex="1" connectable="0">
          <mxGeometry x="-0.1482" y="4" relative="1" as="geometry">
            <mxPoint x="4" y="-10" as="offset" />
          </mxGeometry>
        </mxCell>
        <mxCell id="GImvYdqMDnQKKrTByTcn-14" value="" style="rounded=0;whiteSpace=wrap;html=1;fontSize=18;" parent="1" vertex="1">
          <mxGeometry x="880" y="80" width="600" height="840" as="geometry" />
        </mxCell>
        <mxCell id="GImvYdqMDnQKKrTByTcn-15" style="edgeStyle=orthogonalEdgeStyle;rounded=0;orthogonalLoop=1;jettySize=auto;html=1;exitX=1;exitY=0.5;exitDx=0;exitDy=0;entryX=0;entryY=0.75;entryDx=0;entryDy=0;fontSize=18;" parent="1" source="GImvYdqMDnQKKrTByTcn-17" target="GImvYdqMDnQKKrTByTcn-14" edge="1">
          <mxGeometry relative="1" as="geometry" />
        </mxCell>
        <mxCell id="GImvYdqMDnQKKrTByTcn-16" style="edgeStyle=orthogonalEdgeStyle;rounded=0;orthogonalLoop=1;jettySize=auto;html=1;exitX=0;exitY=0.5;exitDx=0;exitDy=0;entryX=1;entryY=0.75;entryDx=0;entryDy=0;fontSize=18;" parent="1" source="GImvYdqMDnQKKrTByTcn-17" target="GImvYdqMDnQKKrTByTcn-9" edge="1">
          <mxGeometry relative="1" as="geometry" />
        </mxCell>
        <mxCell id="GImvYdqMDnQKKrTByTcn-17" value="&lt;font style=&quot;font-size: 20px;&quot;&gt;&lt;b&gt;Web socket&lt;/b&gt;&lt;/font&gt;" style="rounded=0;whiteSpace=wrap;html=1;" parent="1" vertex="1">
          <mxGeometry x="690" y="680" width="140" height="60" as="geometry" />
        </mxCell>
        <mxCell id="GImvYdqMDnQKKrTByTcn-18" value="" style="rounded=0;whiteSpace=wrap;html=1;" parent="1" vertex="1">
          <mxGeometry x="80" y="120" width="520" height="360" as="geometry" />
        </mxCell>
        <mxCell id="GImvYdqMDnQKKrTByTcn-19" style="edgeStyle=orthogonalEdgeStyle;rounded=0;orthogonalLoop=1;jettySize=auto;html=1;exitX=0.5;exitY=0;exitDx=0;exitDy=0;entryX=0;entryY=0.5;entryDx=0;entryDy=0;" parent="1" source="GImvYdqMDnQKKrTByTcn-21" target="GImvYdqMDnQKKrTByTcn-26" edge="1">
          <mxGeometry relative="1" as="geometry" />
        </mxCell>
        <mxCell id="GImvYdqMDnQKKrTByTcn-20" value="&lt;font style=&quot;font-size: 20px;&quot;&gt;Model changed&lt;/font&gt;" style="edgeLabel;html=1;align=center;verticalAlign=middle;resizable=0;points=[];" parent="GImvYdqMDnQKKrTByTcn-19" vertex="1" connectable="0">
          <mxGeometry x="0.4375" y="1" relative="1" as="geometry">
            <mxPoint x="-11" y="16" as="offset" />
          </mxGeometry>
        </mxCell>
        <mxCell id="GImvYdqMDnQKKrTByTcn-21" value="&lt;b&gt;&lt;font style=&quot;font-size: 20px;&quot;&gt;Model&lt;/font&gt;&lt;/b&gt;" style="rounded=0;whiteSpace=wrap;html=1;fillColor=#d5e8d4;strokeColor=#82b366;" parent="1" vertex="1">
          <mxGeometry x="120" y="360" width="160" height="80" as="geometry" />
        </mxCell>
        <mxCell id="GImvYdqMDnQKKrTByTcn-22" style="edgeStyle=orthogonalEdgeStyle;rounded=0;orthogonalLoop=1;jettySize=auto;html=1;exitX=0.25;exitY=1;exitDx=0;exitDy=0;entryX=1;entryY=0.5;entryDx=0;entryDy=0;" parent="1" source="GImvYdqMDnQKKrTByTcn-26" target="GImvYdqMDnQKKrTByTcn-21" edge="1">
          <mxGeometry relative="1" as="geometry" />
        </mxCell>
        <mxCell id="GImvYdqMDnQKKrTByTcn-23" value="&lt;font style=&quot;font-size: 20px;&quot;&gt;Update model&lt;/font&gt;" style="edgeLabel;html=1;align=center;verticalAlign=middle;resizable=0;points=[];" parent="GImvYdqMDnQKKrTByTcn-22" vertex="1" connectable="0">
          <mxGeometry x="-0.3611" y="-1" relative="1" as="geometry">
            <mxPoint y="47" as="offset" />
          </mxGeometry>
        </mxCell>
        <mxCell id="GImvYdqMDnQKKrTByTcn-24" style="edgeStyle=orthogonalEdgeStyle;rounded=0;orthogonalLoop=1;jettySize=auto;html=1;exitX=0.75;exitY=1;exitDx=0;exitDy=0;entryX=0;entryY=0.5;entryDx=0;entryDy=0;" parent="1" source="GImvYdqMDnQKKrTByTcn-26" target="GImvYdqMDnQKKrTByTcn-29" edge="1">
          <mxGeometry relative="1" as="geometry" />
        </mxCell>
        <mxCell id="GImvYdqMDnQKKrTByTcn-25" value="&lt;font style=&quot;font-size: 20px;&quot;&gt;Update UI&lt;/font&gt;" style="edgeLabel;html=1;align=center;verticalAlign=middle;resizable=0;points=[];" parent="GImvYdqMDnQKKrTByTcn-24" vertex="1" connectable="0">
          <mxGeometry x="-0.3472" y="-2" relative="1" as="geometry">
            <mxPoint y="-43" as="offset" />
          </mxGeometry>
        </mxCell>
        <mxCell id="GImvYdqMDnQKKrTByTcn-26" value="&lt;font style=&quot;font-size: 20px;&quot;&gt;&lt;b&gt;Presenter&lt;/b&gt;&lt;/font&gt;" style="rounded=0;whiteSpace=wrap;html=1;fillColor=#dae8fc;strokeColor=#6c8ebf;" parent="1" vertex="1">
          <mxGeometry x="260" y="160" width="160" height="80" as="geometry" />
        </mxCell>
        <mxCell id="GImvYdqMDnQKKrTByTcn-27" style="edgeStyle=orthogonalEdgeStyle;rounded=0;orthogonalLoop=1;jettySize=auto;html=1;exitX=0.5;exitY=0;exitDx=0;exitDy=0;entryX=1;entryY=0.5;entryDx=0;entryDy=0;" parent="1" source="GImvYdqMDnQKKrTByTcn-29" target="GImvYdqMDnQKKrTByTcn-26" edge="1">
          <mxGeometry relative="1" as="geometry" />
        </mxCell>
        <mxCell id="GImvYdqMDnQKKrTByTcn-28" value="&lt;font style=&quot;font-size: 20px;&quot;&gt;User action&lt;/font&gt;" style="edgeLabel;html=1;align=center;verticalAlign=middle;resizable=0;points=[];" parent="GImvYdqMDnQKKrTByTcn-27" vertex="1" connectable="0">
          <mxGeometry x="0.025" y="-1" relative="1" as="geometry">
            <mxPoint x="-8" y="-30" as="offset" />
          </mxGeometry>
        </mxCell>
        <mxCell id="GImvYdqMDnQKKrTByTcn-29" value="&lt;font style=&quot;font-size: 20px;&quot;&gt;&lt;b&gt;View&lt;/b&gt;&lt;/font&gt;" style="rounded=0;whiteSpace=wrap;html=1;fillColor=#fff2cc;strokeColor=#d6b656;" parent="1" vertex="1">
          <mxGeometry x="400" y="360" width="160" height="80" as="geometry" />
        </mxCell>
        <mxCell id="GImvYdqMDnQKKrTByTcn-30" value="" style="rounded=0;whiteSpace=wrap;html=1;" parent="1" vertex="1">
          <mxGeometry x="920" y="120" width="520" height="760" as="geometry" />
        </mxCell>
        <mxCell id="GImvYdqMDnQKKrTByTcn-32" value="&lt;b&gt;&lt;font style=&quot;font-size: 20px;&quot;&gt;Web app&lt;/font&gt;&lt;/b&gt;" style="text;html=1;strokeColor=none;fillColor=none;align=center;verticalAlign=middle;whiteSpace=wrap;rounded=0;" parent="1" vertex="1">
          <mxGeometry x="500" y="120" width="100" height="30" as="geometry" />
        </mxCell>
        <mxCell id="GImvYdqMDnQKKrTByTcn-33" value="&lt;b&gt;&lt;font style=&quot;font-size: 20px;&quot;&gt;Back-end&lt;/font&gt;&lt;/b&gt;" style="text;html=1;strokeColor=none;fillColor=none;align=center;verticalAlign=middle;whiteSpace=wrap;rounded=0;" parent="1" vertex="1">
          <mxGeometry x="1320" y="120" width="120" height="30" as="geometry" />
        </mxCell>
        <mxCell id="NhBRwlYtIPIGBlvPZhkC-14" style="edgeStyle=orthogonalEdgeStyle;rounded=0;orthogonalLoop=1;jettySize=auto;html=1;exitX=0.15;exitY=0.05;exitDx=0;exitDy=0;exitPerimeter=0;entryX=0.25;entryY=1;entryDx=0;entryDy=0;fontSize=18;dashed=1;" parent="1" source="GImvYdqMDnQKKrTByTcn-40" target="X92FyfjN7UFMcNt-j4p2-3" edge="1">
          <mxGeometry relative="1" as="geometry" />
        </mxCell>
        <mxCell id="NhBRwlYtIPIGBlvPZhkC-18" value="Return" style="edgeLabel;html=1;align=center;verticalAlign=middle;resizable=0;points=[];fontSize=20;" parent="NhBRwlYtIPIGBlvPZhkC-14" vertex="1" connectable="0">
          <mxGeometry x="-0.7562" y="-1" relative="1" as="geometry">
            <mxPoint x="-2" y="-13" as="offset" />
          </mxGeometry>
        </mxCell>
        <mxCell id="GImvYdqMDnQKKrTByTcn-40" value="&lt;font style=&quot;font-size: 20px;&quot;&gt;&lt;b&gt;Database&lt;/b&gt;&lt;/font&gt;" style="shape=datastore;whiteSpace=wrap;html=1;align=center;" parent="1" vertex="1">
          <mxGeometry x="1130" y="740" width="100" height="110" as="geometry" />
        </mxCell>
        <mxCell id="GImvYdqMDnQKKrTByTcn-41" value="&lt;font style=&quot;font-size: 20px;&quot;&gt;Client Side&lt;/font&gt;" style="text;html=1;strokeColor=none;fillColor=none;align=center;verticalAlign=middle;whiteSpace=wrap;rounded=0;fontSize=18;fontStyle=1" parent="1" vertex="1">
          <mxGeometry x="520" y="80" width="120" height="30" as="geometry" />
        </mxCell>
        <mxCell id="GImvYdqMDnQKKrTByTcn-42" value="&lt;font style=&quot;font-size: 20px;&quot;&gt;Server Side&lt;/font&gt;" style="text;html=1;strokeColor=none;fillColor=none;align=center;verticalAlign=middle;whiteSpace=wrap;rounded=0;fontSize=18;fontStyle=1" parent="1" vertex="1">
          <mxGeometry x="1350" y="80" width="130" height="30" as="geometry" />
        </mxCell>
        <mxCell id="GImvYdqMDnQKKrTByTcn-43" value="&lt;font style=&quot;font-size: 20px;&quot;&gt;Social Toilet Map&lt;/font&gt;" style="text;html=1;strokeColor=none;fillColor=none;align=center;verticalAlign=middle;whiteSpace=wrap;rounded=0;fontSize=18;fontStyle=1" parent="1" vertex="1">
          <mxGeometry x="1340" y="40" width="180" height="30" as="geometry" />
        </mxCell>
        <mxCell id="GImvYdqMDnQKKrTByTcn-44" value="" style="sketch=0;pointerEvents=1;shadow=0;dashed=0;html=1;strokeColor=none;fillColor=#505050;labelPosition=center;verticalLabelPosition=bottom;verticalAlign=top;outlineConnect=0;align=center;shape=mxgraph.office.concepts.application_web;fontSize=18;" parent="1" vertex="1">
          <mxGeometry x="-220" y="200" width="120" height="100" as="geometry" />
        </mxCell>
        <mxCell id="GImvYdqMDnQKKrTByTcn-45" value="" style="sketch=0;pointerEvents=1;shadow=0;dashed=0;html=1;strokeColor=none;fillColor=#505050;labelPosition=center;verticalLabelPosition=bottom;verticalAlign=top;outlineConnect=0;align=center;shape=mxgraph.office.devices.cell_phone_android_standalone;fontSize=18;" parent="1" vertex="1">
          <mxGeometry x="-140" y="680" width="40" height="70" as="geometry" />
        </mxCell>
        <mxCell id="GImvYdqMDnQKKrTByTcn-46" value="" style="endArrow=classic;html=1;rounded=0;fontSize=18;edgeStyle=orthogonalEdgeStyle;" parent="1" source="GImvYdqMDnQKKrTByTcn-44" edge="1">
          <mxGeometry width="50" height="50" relative="1" as="geometry">
            <mxPoint x="490" y="410" as="sourcePoint" />
            <mxPoint x="80" y="220" as="targetPoint" />
            <Array as="points">
              <mxPoint x="80" y="220" />
            </Array>
          </mxGeometry>
        </mxCell>
        <mxCell id="GImvYdqMDnQKKrTByTcn-47" value="" style="endArrow=classic;html=1;rounded=0;fontSize=18;edgeStyle=orthogonalEdgeStyle;dashed=1;" parent="1" target="GImvYdqMDnQKKrTByTcn-44" edge="1">
          <mxGeometry width="50" height="50" relative="1" as="geometry">
            <mxPoint x="80" y="270" as="sourcePoint" />
            <mxPoint x="540" y="360" as="targetPoint" />
            <Array as="points">
              <mxPoint x="80" y="270" />
            </Array>
          </mxGeometry>
        </mxCell>
        <mxCell id="GImvYdqMDnQKKrTByTcn-48" value="" style="endArrow=classic;html=1;rounded=0;fontSize=18;edgeStyle=orthogonalEdgeStyle;dashed=1;exitX=0;exitY=0.583;exitDx=0;exitDy=0;exitPerimeter=0;" parent="1" source="GImvYdqMDnQKKrTByTcn-60" target="GImvYdqMDnQKKrTByTcn-45" edge="1">
          <mxGeometry width="50" height="50" relative="1" as="geometry">
            <mxPoint x="-20" y="800" as="sourcePoint" />
            <mxPoint x="-130" y="490" as="targetPoint" />
            <Array as="points">
              <mxPoint y="730" />
              <mxPoint y="730" />
            </Array>
          </mxGeometry>
        </mxCell>
        <mxCell id="GImvYdqMDnQKKrTByTcn-49" value="" style="endArrow=classic;html=1;rounded=0;fontSize=18;edgeStyle=orthogonalEdgeStyle;" parent="1" source="GImvYdqMDnQKKrTByTcn-45" edge="1">
          <mxGeometry width="50" height="50" relative="1" as="geometry">
            <mxPoint x="-150" y="608.46" as="sourcePoint" />
            <mxPoint x="80" y="700" as="targetPoint" />
            <Array as="points">
              <mxPoint x="80" y="700" />
            </Array>
          </mxGeometry>
        </mxCell>
        <mxCell id="GImvYdqMDnQKKrTByTcn-50" style="edgeStyle=orthogonalEdgeStyle;rounded=0;orthogonalLoop=1;jettySize=auto;html=1;exitX=0.85;exitY=0.95;exitDx=0;exitDy=0;exitPerimeter=0;fontSize=11;dashed=1;" parent="1" source="GImvYdqMDnQKKrTByTcn-52" edge="1">
          <mxGeometry relative="1" as="geometry">
            <mxPoint x="217.99999999999955" y="79" as="targetPoint" />
            <Array as="points">
              <mxPoint x="218" y="10" />
              <mxPoint x="218" y="10" />
            </Array>
          </mxGeometry>
        </mxCell>
        <mxCell id="GImvYdqMDnQKKrTByTcn-51" value="&lt;font style=&quot;font-size: 20px;&quot;&gt;Return&lt;/font&gt;" style="edgeLabel;html=1;align=center;verticalAlign=middle;resizable=0;points=[];fontSize=11;" parent="GImvYdqMDnQKKrTByTcn-50" vertex="1" connectable="0">
          <mxGeometry x="-0.4433" relative="1" as="geometry">
            <mxPoint y="60" as="offset" />
          </mxGeometry>
        </mxCell>
        <mxCell id="GImvYdqMDnQKKrTByTcn-52" value="&lt;font style=&quot;font-size: 20px;&quot;&gt;Storage&lt;br&gt;Service&lt;/font&gt;" style="shape=datastore;whiteSpace=wrap;html=1;" parent="1" vertex="1">
          <mxGeometry x="130" y="-140" width="120" height="120" as="geometry" />
        </mxCell>
        <mxCell id="GImvYdqMDnQKKrTByTcn-53" value="&lt;font style=&quot;font-size: 20px;&quot;&gt;3rd Party Service&lt;/font&gt;" style="text;html=1;strokeColor=none;fillColor=none;align=center;verticalAlign=middle;whiteSpace=wrap;rounded=0;fontSize=18;fontStyle=1" parent="1" vertex="1">
          <mxGeometry x="675" y="-160" width="170" height="30" as="geometry" />
        </mxCell>
        <mxCell id="GImvYdqMDnQKKrTByTcn-54" style="edgeStyle=orthogonalEdgeStyle;rounded=0;orthogonalLoop=1;jettySize=auto;html=1;exitX=0.75;exitY=1;exitDx=0;exitDy=0;fontSize=20;dashed=1;" parent="1" source="GImvYdqMDnQKKrTByTcn-56" target="GImvYdqMDnQKKrTByTcn-9" edge="1">
          <mxGeometry relative="1" as="geometry">
            <Array as="points">
              <mxPoint x="520" y="50" />
              <mxPoint x="520" y="50" />
            </Array>
          </mxGeometry>
        </mxCell>
        <mxCell id="GImvYdqMDnQKKrTByTcn-55" value="Return" style="edgeLabel;html=1;align=center;verticalAlign=middle;resizable=0;points=[];fontSize=20;" parent="GImvYdqMDnQKKrTByTcn-54" vertex="1" connectable="0">
          <mxGeometry x="0.2308" y="2" relative="1" as="geometry">
            <mxPoint x="-2" y="23" as="offset" />
          </mxGeometry>
        </mxCell>
        <mxCell id="GImvYdqMDnQKKrTByTcn-56" value="&lt;font style=&quot;font-size: 20px;&quot;&gt;Map Service&lt;/font&gt;" style="rounded=0;whiteSpace=wrap;html=1;" parent="1" vertex="1">
          <mxGeometry x="430" y="-110" width="120" height="60" as="geometry" />
        </mxCell>
        <mxCell id="GImvYdqMDnQKKrTByTcn-57" style="edgeStyle=orthogonalEdgeStyle;rounded=0;orthogonalLoop=1;jettySize=auto;html=1;exitX=0.75;exitY=1;exitDx=0;exitDy=0;dashed=1;fontSize=20;" parent="1" source="GImvYdqMDnQKKrTByTcn-59" edge="1">
          <mxGeometry relative="1" as="geometry">
            <mxPoint x="1210" y="80" as="targetPoint" />
            <Array as="points">
              <mxPoint x="1210" y="80" />
            </Array>
          </mxGeometry>
        </mxCell>
        <mxCell id="GImvYdqMDnQKKrTByTcn-58" value="Return" style="edgeLabel;html=1;align=center;verticalAlign=middle;resizable=0;points=[];fontSize=20;" parent="GImvYdqMDnQKKrTByTcn-57" vertex="1" connectable="0">
          <mxGeometry x="0.1639" y="-3" relative="1" as="geometry">
            <mxPoint x="3" y="27" as="offset" />
          </mxGeometry>
        </mxCell>
        <mxCell id="GImvYdqMDnQKKrTByTcn-59" value="&lt;font style=&quot;font-size: 20px;&quot;&gt;Payment Service&lt;/font&gt;" style="rounded=0;whiteSpace=wrap;html=1;" parent="1" vertex="1">
          <mxGeometry x="1120" y="-110" width="120" height="60" as="geometry" />
        </mxCell>
        <mxCell id="GImvYdqMDnQKKrTByTcn-60" value="" style="rounded=0;whiteSpace=wrap;html=1;" parent="1" vertex="1">
          <mxGeometry x="80" y="520" width="520" height="360" as="geometry" />
        </mxCell>
        <mxCell id="GImvYdqMDnQKKrTByTcn-61" style="edgeStyle=orthogonalEdgeStyle;rounded=0;orthogonalLoop=1;jettySize=auto;html=1;exitX=0.5;exitY=0;exitDx=0;exitDy=0;entryX=0;entryY=0.5;entryDx=0;entryDy=0;" parent="1" source="GImvYdqMDnQKKrTByTcn-63" target="GImvYdqMDnQKKrTByTcn-66" edge="1">
          <mxGeometry relative="1" as="geometry" />
        </mxCell>
        <mxCell id="GImvYdqMDnQKKrTByTcn-62" value="&lt;font style=&quot;font-size: 20px;&quot;&gt;Owns&lt;/font&gt;" style="edgeLabel;html=1;align=center;verticalAlign=middle;resizable=0;points=[];" parent="GImvYdqMDnQKKrTByTcn-61" vertex="1" connectable="0">
          <mxGeometry x="0.4375" y="1" relative="1" as="geometry">
            <mxPoint x="1" y="17" as="offset" />
          </mxGeometry>
        </mxCell>
        <mxCell id="GImvYdqMDnQKKrTByTcn-63" value="&lt;font style=&quot;font-size: 20px;&quot;&gt;&lt;b&gt;View&lt;/b&gt;&lt;/font&gt;" style="rounded=0;whiteSpace=wrap;html=1;fillColor=#fff2cc;strokeColor=#d6b656;" parent="1" vertex="1">
          <mxGeometry x="120" y="760" width="160" height="80" as="geometry" />
        </mxCell>
        <mxCell id="GImvYdqMDnQKKrTByTcn-64" style="edgeStyle=orthogonalEdgeStyle;rounded=0;orthogonalLoop=1;jettySize=auto;html=1;exitX=0.75;exitY=1;exitDx=0;exitDy=0;entryX=0;entryY=0.5;entryDx=0;entryDy=0;" parent="1" source="GImvYdqMDnQKKrTByTcn-66" target="GImvYdqMDnQKKrTByTcn-69" edge="1">
          <mxGeometry relative="1" as="geometry" />
        </mxCell>
        <mxCell id="GImvYdqMDnQKKrTByTcn-65" value="&lt;font style=&quot;font-size: 20px;&quot;&gt;Notifies&lt;/font&gt;" style="edgeLabel;html=1;align=center;verticalAlign=middle;resizable=0;points=[];" parent="GImvYdqMDnQKKrTByTcn-64" vertex="1" connectable="0">
          <mxGeometry x="-0.3472" y="-2" relative="1" as="geometry">
            <mxPoint y="-45" as="offset" />
          </mxGeometry>
        </mxCell>
        <mxCell id="GImvYdqMDnQKKrTByTcn-66" value="&lt;b&gt;&lt;font style=&quot;font-size: 20px;&quot;&gt;View Model&lt;/font&gt;&lt;/b&gt;" style="rounded=0;whiteSpace=wrap;html=1;fillColor=#dae8fc;strokeColor=#6c8ebf;" parent="1" vertex="1">
          <mxGeometry x="260" y="560" width="160" height="80" as="geometry" />
        </mxCell>
        <mxCell id="GImvYdqMDnQKKrTByTcn-67" style="edgeStyle=orthogonalEdgeStyle;rounded=0;orthogonalLoop=1;jettySize=auto;html=1;exitX=0.5;exitY=0;exitDx=0;exitDy=0;entryX=1;entryY=0.5;entryDx=0;entryDy=0;" parent="1" source="GImvYdqMDnQKKrTByTcn-69" target="GImvYdqMDnQKKrTByTcn-66" edge="1">
          <mxGeometry relative="1" as="geometry" />
        </mxCell>
        <mxCell id="GImvYdqMDnQKKrTByTcn-68" value="&lt;span style=&quot;font-size: 20px;&quot;&gt;Owns and updates&lt;/span&gt;" style="edgeLabel;html=1;align=center;verticalAlign=middle;resizable=0;points=[];" parent="GImvYdqMDnQKKrTByTcn-67" vertex="1" connectable="0">
          <mxGeometry x="0.025" y="-1" relative="1" as="geometry">
            <mxPoint x="25" y="-30" as="offset" />
          </mxGeometry>
        </mxCell>
        <mxCell id="GImvYdqMDnQKKrTByTcn-69" value="&lt;b&gt;&lt;font style=&quot;font-size: 20px;&quot;&gt;Model&lt;/font&gt;&lt;/b&gt;" style="rounded=0;whiteSpace=wrap;html=1;fillColor=#d5e8d4;strokeColor=#82b366;" parent="1" vertex="1">
          <mxGeometry x="400" y="760" width="160" height="80" as="geometry" />
        </mxCell>
        <mxCell id="GImvYdqMDnQKKrTByTcn-70" value="&lt;b&gt;&lt;font style=&quot;font-size: 20px;&quot;&gt;Mobile app&lt;/font&gt;&lt;/b&gt;" style="text;html=1;strokeColor=none;fillColor=none;align=center;verticalAlign=middle;whiteSpace=wrap;rounded=0;" parent="1" vertex="1">
          <mxGeometry x="480" y="520" width="120" height="30" as="geometry" />
        </mxCell>
        <mxCell id="GImvYdqMDnQKKrTByTcn-71" value="" style="endArrow=classic;startArrow=classic;html=1;rounded=0;fontSize=20;exitX=1;exitY=0.5;exitDx=0;exitDy=0;entryX=0.25;entryY=1;entryDx=0;entryDy=0;edgeStyle=orthogonalEdgeStyle;" parent="1" source="GImvYdqMDnQKKrTByTcn-63" target="GImvYdqMDnQKKrTByTcn-66" edge="1">
          <mxGeometry width="50" height="50" relative="1" as="geometry">
            <mxPoint x="470" y="750" as="sourcePoint" />
            <mxPoint x="520" y="700" as="targetPoint" />
          </mxGeometry>
        </mxCell>
        <mxCell id="GImvYdqMDnQKKrTByTcn-72" value="&lt;font style=&quot;font-size: 20px;&quot;&gt;Data and user &lt;br&gt;action binding&lt;/font&gt;" style="edgeLabel;html=1;align=center;verticalAlign=middle;resizable=0;points=[];fontSize=18;" parent="GImvYdqMDnQKKrTByTcn-71" vertex="1" connectable="0">
          <mxGeometry x="0.5" y="2" relative="1" as="geometry">
            <mxPoint y="48" as="offset" />
          </mxGeometry>
        </mxCell>
        <mxCell id="NhBRwlYtIPIGBlvPZhkC-6" style="edgeStyle=orthogonalEdgeStyle;rounded=0;orthogonalLoop=1;jettySize=auto;html=1;exitX=0.75;exitY=1;exitDx=0;exitDy=0;entryX=0.75;entryY=0;entryDx=0;entryDy=0;fontSize=20;" parent="1" source="X92FyfjN7UFMcNt-j4p2-2" target="X92FyfjN7UFMcNt-j4p2-3" edge="1">
          <mxGeometry relative="1" as="geometry" />
        </mxCell>
        <mxCell id="NhBRwlYtIPIGBlvPZhkC-15" value="&lt;font style=&quot;font-size: 20px;&quot;&gt;Call&lt;/font&gt;" style="edgeLabel;html=1;align=center;verticalAlign=middle;resizable=0;points=[];fontSize=18;" parent="NhBRwlYtIPIGBlvPZhkC-6" vertex="1" connectable="0">
          <mxGeometry x="-0.279" y="-1" relative="1" as="geometry">
            <mxPoint y="-18" as="offset" />
          </mxGeometry>
        </mxCell>
        <mxCell id="X92FyfjN7UFMcNt-j4p2-2" value="&lt;b&gt;&lt;font style=&quot;font-size: 20px;&quot;&gt;Controller&lt;br&gt;(REST API)&lt;br&gt;&lt;/font&gt;&lt;/b&gt;" style="rounded=0;whiteSpace=wrap;html=1;fillColor=#dae8fc;strokeColor=#6c8ebf;" parent="1" vertex="1">
          <mxGeometry x="1100" y="280" width="160" height="80" as="geometry" />
        </mxCell>
        <mxCell id="NhBRwlYtIPIGBlvPZhkC-7" style="edgeStyle=orthogonalEdgeStyle;rounded=0;orthogonalLoop=1;jettySize=auto;html=1;exitX=0.25;exitY=0;exitDx=0;exitDy=0;entryX=0.25;entryY=1;entryDx=0;entryDy=0;fontSize=20;dashed=1;" parent="1" source="X92FyfjN7UFMcNt-j4p2-3" target="X92FyfjN7UFMcNt-j4p2-2" edge="1">
          <mxGeometry relative="1" as="geometry" />
        </mxCell>
        <mxCell id="NhBRwlYtIPIGBlvPZhkC-16" value="&lt;font style=&quot;font-size: 20px;&quot;&gt;Return&lt;/font&gt;" style="edgeLabel;html=1;align=center;verticalAlign=middle;resizable=0;points=[];fontSize=18;" parent="NhBRwlYtIPIGBlvPZhkC-7" vertex="1" connectable="0">
          <mxGeometry x="-0.3707" relative="1" as="geometry">
            <mxPoint y="12" as="offset" />
          </mxGeometry>
        </mxCell>
        <mxCell id="NhBRwlYtIPIGBlvPZhkC-13" style="edgeStyle=orthogonalEdgeStyle;rounded=0;orthogonalLoop=1;jettySize=auto;html=1;exitX=0.75;exitY=1;exitDx=0;exitDy=0;entryX=0.85;entryY=0.05;entryDx=0;entryDy=0;entryPerimeter=0;fontSize=18;" parent="1" source="X92FyfjN7UFMcNt-j4p2-3" target="GImvYdqMDnQKKrTByTcn-40" edge="1">
          <mxGeometry relative="1" as="geometry" />
        </mxCell>
        <mxCell id="NhBRwlYtIPIGBlvPZhkC-17" value="Query" style="edgeLabel;html=1;align=center;verticalAlign=middle;resizable=0;points=[];fontSize=20;" parent="NhBRwlYtIPIGBlvPZhkC-13" vertex="1" connectable="0">
          <mxGeometry x="-0.4104" y="-2" relative="1" as="geometry">
            <mxPoint y="-13" as="offset" />
          </mxGeometry>
        </mxCell>
        <mxCell id="X92FyfjN7UFMcNt-j4p2-3" value="" style="rounded=0;whiteSpace=wrap;html=1;fillColor=#d5e8d4;strokeColor=#82b366;" parent="1" vertex="1">
          <mxGeometry x="1070" y="480" width="220" height="180" as="geometry" />
        </mxCell>
        <mxCell id="GImvYdqMDnQKKrTByTcn-3" style="edgeStyle=orthogonalEdgeStyle;rounded=0;orthogonalLoop=1;jettySize=auto;html=1;exitX=1;exitY=0.25;exitDx=0;exitDy=0;entryX=0;entryY=0.25;entryDx=0;entryDy=0;fontSize=18;" parent="1" source="GImvYdqMDnQKKrTByTcn-9" target="X92FyfjN7UFMcNt-j4p2-2" edge="1">
          <mxGeometry relative="1" as="geometry">
            <Array as="points">
              <mxPoint x="640" y="300" />
            </Array>
          </mxGeometry>
        </mxCell>
        <mxCell id="GImvYdqMDnQKKrTByTcn-4" value="&lt;font style=&quot;font-size: 20px;&quot;&gt;Send HTTP request&lt;/font&gt;" style="edgeLabel;html=1;align=center;verticalAlign=middle;resizable=0;points=[];fontSize=18;" parent="GImvYdqMDnQKKrTByTcn-3" vertex="1" connectable="0">
          <mxGeometry x="-0.2529" y="-5" relative="1" as="geometry">
            <mxPoint x="73" y="-19" as="offset" />
          </mxGeometry>
        </mxCell>
        <mxCell id="GImvYdqMDnQKKrTByTcn-10" style="edgeStyle=orthogonalEdgeStyle;rounded=0;orthogonalLoop=1;jettySize=auto;html=1;exitX=0;exitY=0.75;exitDx=0;exitDy=0;fontSize=18;dashed=1;" parent="1" source="X92FyfjN7UFMcNt-j4p2-2" edge="1">
          <mxGeometry relative="1" as="geometry">
            <mxPoint x="640" y="340" as="targetPoint" />
            <Array as="points">
              <mxPoint x="640" y="340" />
            </Array>
          </mxGeometry>
        </mxCell>
        <mxCell id="GImvYdqMDnQKKrTByTcn-11" value="&lt;font style=&quot;font-size: 20px;&quot;&gt;Return HTTP request&lt;/font&gt;" style="edgeLabel;html=1;align=center;verticalAlign=middle;resizable=0;points=[];fontSize=18;" parent="GImvYdqMDnQKKrTByTcn-10" vertex="1" connectable="0">
          <mxGeometry x="0.0748" relative="1" as="geometry">
            <mxPoint x="32" y="-14" as="offset" />
          </mxGeometry>
        </mxCell>
        <mxCell id="NhBRwlYtIPIGBlvPZhkC-5" value="&lt;font style=&quot;font-size: 20px;&quot;&gt;&lt;b&gt;Model&lt;/b&gt;&lt;/font&gt;" style="text;html=1;strokeColor=none;fillColor=none;align=center;verticalAlign=middle;whiteSpace=wrap;rounded=0;" parent="1" vertex="1">
          <mxGeometry x="1150" y="480" width="60" height="30" as="geometry" />
        </mxCell>
        <mxCell id="NhBRwlYtIPIGBlvPZhkC-10" value="&lt;b style=&quot;&quot;&gt;&lt;font style=&quot;font-size: 18px;&quot;&gt;Service&lt;/font&gt;&lt;/b&gt;" style="rounded=0;whiteSpace=wrap;html=1;fillColor=#fff2cc;strokeColor=#d6b656;" parent="1" vertex="1">
          <mxGeometry x="1120" y="510" width="120" height="40" as="geometry" />
        </mxCell>
        <mxCell id="NhBRwlYtIPIGBlvPZhkC-11" value="&lt;b style=&quot;&quot;&gt;&lt;font style=&quot;font-size: 18px;&quot;&gt;Entity&lt;/font&gt;&lt;/b&gt;" style="rounded=0;whiteSpace=wrap;html=1;fillColor=#fff2cc;strokeColor=#d6b656;" parent="1" vertex="1">
          <mxGeometry x="1120" y="560" width="120" height="40" as="geometry" />
        </mxCell>
        <mxCell id="NhBRwlYtIPIGBlvPZhkC-12" value="&lt;b style=&quot;&quot;&gt;&lt;font style=&quot;font-size: 18px;&quot;&gt;Repository&lt;/font&gt;&lt;/b&gt;" style="rounded=0;whiteSpace=wrap;html=1;fillColor=#fff2cc;strokeColor=#d6b656;" parent="1" vertex="1">
          <mxGeometry x="1120" y="610" width="120" height="40" as="geometry" />
        </mxCell>
      </root>
    </mxGraphModel>
  </diagram>
</mxfile>
